<svg width="14" height="17" viewBox="0 0 14 17" fill="none" xmlns="http://www.w3.org/2000/svg">
<path d="M9.50665 0H4.42226C3.6103 0 2.95301 0.642222 2.95301 1.43556V2.64444C2.10239 2.64444 1.2711 2.64444 0.420477 2.64444C-0.140159 2.64444 -0.140159 3.49444 0.420477 3.49444C0.652464 3.49444 0.884452 3.49444 1.11644 3.49444V15.5644C1.11644 16.3578 1.77374 17 2.58569 17H11.3432C12.1552 17 12.8125 16.3578 12.8125 15.5644V3.49444C13.0445 3.49444 13.2764 3.49444 13.5084 3.49444C14.0691 3.49444 14.0691 2.64444 13.5084 2.64444C12.6578 2.64444 11.8265 2.64444 10.9759 2.64444V1.43556C10.9759 0.642222 10.3186 0 9.50665 0ZM3.82296 1.43556C3.82296 1.11444 4.09361 0.85 4.42226 0.85H9.50665C9.8353 0.85 10.1059 1.11444 10.1059 1.43556V2.64444C7.99873 2.64444 5.91084 2.64444 3.80363 2.64444V1.43556H3.82296ZM11.9425 15.5644C11.9425 15.8856 11.6719 16.15 11.3432 16.15H2.58569C2.25704 16.15 1.98639 15.8856 1.98639 15.5644V3.49444C5.31154 3.49444 8.63669 3.49444 11.9618 3.49444V15.5644H11.9425Z" fill="#657181"/>
<path d="M5.671 13.4591C5.671 10.998 5.671 8.55526 5.671 6.09425C5.671 5.56559 4.84277 5.56559 4.84277 6.09425C4.84277 8.55526 4.84277 10.998 4.84277 13.4591C4.84277 13.9877 5.671 13.9877 5.671 13.4591Z" fill="#657181"/>
<path d="M8.86728 13.4591C8.86728 10.998 8.86728 8.55526 8.86728 6.09425C8.86728 5.56559 8.03906 5.56559 8.03906 6.09425C8.03906 8.55526 8.03906 10.998 8.03906 13.4591C8.03906 13.9877 8.86728 13.9877 8.86728 13.4591Z" fill="#657181"/>
<path d="M3.84277 1.19775C3.84277 0.921612 4.06663 0.697754 4.34277 0.697754H9.74277C10.0189 0.697754 10.2428 0.921612 10.2428 1.19775V2.69775H3.84277V1.19775Z" fill="url(#paint0_linear_1313_7612)"/>
<defs>
<linearGradient id="paint0_linear_1313_7612" x1="11.0428" y1="2.27275" x2="3.46526" y2="0.90938" gradientUnits="userSpaceOnUse">
<stop offset="0.00949925" stop-color="#5DB9FF"/>
<stop offset="0.994653" stop-color="#3980E8"/>
</linearGradient>
</defs>
</svg>
