<svg width="32" height="32" viewBox="0 0 32 32" fill="none" xmlns="http://www.w3.org/2000/svg">
  <path d="M15.9902 3.0018C15.9801 3.0018 15.9595 3.0018 15.9494 3.01192C15.827 3.0325 15.7252 3.1654 15.7252 3.2983V5.38537C15.7252 5.53886 15.8678 5.68223 16.0108 5.68223C16.1638 5.68223 16.3064 5.53886 16.3064 5.38537V3.29867C16.3064 3.1347 16.1534 2.98158 15.9902 3.0018ZM6.98014 6.7263C6.76569 6.76711 6.6841 7.07409 6.83717 7.21746L8.30654 8.70105C8.40871 8.82384 8.62279 8.84443 8.73543 8.72164C8.85782 8.60896 8.83724 8.39444 8.71485 8.29187L7.24549 6.8184C7.18412 6.757 7.09242 6.71619 7.01082 6.7263C7.00036 6.7263 6.99025 6.7263 6.98014 6.7263ZM24.949 6.7263C24.8876 6.73642 24.8266 6.76711 24.7757 6.8184L23.3063 8.29187C23.1839 8.39444 23.1633 8.60896 23.2861 8.72164C23.3984 8.84443 23.6125 8.8242 23.7042 8.70105L25.1941 7.21746C25.3779 7.05386 25.1941 6.68549 24.949 6.7263ZM16.0104 7.06398C11.0821 7.06398 7.08195 11.0644 7.08195 16.0063C7.08195 20.9381 11.0821 24.949 16.0104 24.949C20.9492 24.949 24.9385 20.9385 24.9385 16.0063C24.9389 11.0644 20.9492 7.06398 16.0104 7.06398ZM16.0104 7.63675C20.6329 7.63675 24.367 11.3815 24.367 16.006C24.367 20.6203 20.6326 24.365 16.0104 24.365C11.3983 24.365 7.65345 20.6203 7.65345 16.006C7.65345 11.3815 11.3983 7.63675 16.0104 7.63675ZM3.26594 15.7095C3.11286 15.7304 2.99048 15.8734 3.00058 16.0265C3.02116 16.1804 3.16377 16.3032 3.31684 16.2923H5.40861C5.56168 16.2923 5.70464 16.1598 5.70464 16.006C5.70464 15.8528 5.56168 15.7095 5.40861 15.7095H3.31684C3.30673 15.7095 3.29626 15.7095 3.28651 15.7095C3.27604 15.7095 3.27604 15.7095 3.26594 15.7095ZM26.5512 15.7095C26.3981 15.7304 26.2757 15.8832 26.2959 16.037C26.3165 16.18 26.4692 16.3028 26.6126 16.2923H28.7043C28.8574 16.2923 29 16.1598 29 16.006C29 15.8528 28.857 15.7095 28.7043 15.7095H26.6126C26.6024 15.7095 26.592 15.7095 26.5819 15.7095C26.5718 15.7095 26.5613 15.7095 26.5512 15.7095ZM8.47983 23.2094C8.41881 23.2199 8.35744 23.2502 8.30654 23.3018L6.83717 24.7851C6.71479 24.8873 6.69421 25.092 6.81659 25.2145C6.92887 25.3275 7.14332 25.3167 7.24549 25.1841L8.71485 23.7107C8.87803 23.5471 8.73543 23.209 8.51087 23.209C8.5004 23.2094 8.4903 23.2094 8.47983 23.2094ZM23.4493 23.2094C23.2348 23.2502 23.1428 23.5676 23.3063 23.711L24.7757 25.1845C24.8879 25.2968 25.0818 25.2968 25.1941 25.1942C25.2959 25.0819 25.2959 24.8873 25.1941 24.7851L23.7042 23.3018C23.6529 23.2404 23.5612 23.2094 23.4796 23.2094C23.4691 23.2094 23.4594 23.2094 23.4493 23.2094ZM15.9902 26.3199C15.9801 26.3199 15.9595 26.3199 15.9494 26.3297C15.827 26.3503 15.7252 26.4835 15.7252 26.6168V28.7039C15.7252 28.857 15.8678 29 16.0108 29C16.1638 29 16.3064 28.857 16.3064 28.7039V26.6168C16.3064 26.4525 16.1534 26.2997 15.9902 26.3199Z" fill="#657181" stroke="black" stroke-width="0.1"/>
</svg>
