<svg width="32" height="32" viewBox="0 0 32 32" fill="none" xmlns="http://www.w3.org/2000/svg">
  <path fill-rule="evenodd" clip-rule="evenodd" d="M11.0016 6C11.0016 5.8067 10.8449 5.65 10.6516 5.65C10.4583 5.65 10.3016 5.8067 10.3016 6V10.1955H6.00039C5.80709 10.1955 5.65039 10.3522 5.65039 10.5455C5.65039 10.7388 5.80709 10.8955 6.00039 10.8955H10.3016V20.4545C10.3016 21.2001 10.906 21.8045 11.6516 21.8045H21.4643V26C21.4643 26.1933 21.621 26.35 21.8143 26.35C22.0076 26.35 22.1643 26.1933 22.1643 26V21.8045H26.0004C26.1937 21.8045 26.3504 21.6478 26.3504 21.4545C26.3504 21.2612 26.1937 21.1045 26.0004 21.1045H21.8143H11.6516C11.2926 21.1045 11.0016 20.8135 11.0016 20.4545V10.5455V6ZM14.0004 10.65C13.8071 10.65 13.6504 10.8067 13.6504 11C13.6504 11.1933 13.8071 11.35 14.0004 11.35H21.0004C21.3594 11.35 21.6504 11.641 21.6504 12V19C21.6504 19.1933 21.8071 19.35 22.0004 19.35C22.1937 19.35 22.3504 19.1933 22.3504 19V12C22.3504 11.2544 21.746 10.65 21.0004 10.65H14.0004Z" fill="#657181"/>
</svg>
