<svg width="32" height="32" viewBox="0 0 32 32" fill="none" xmlns="http://www.w3.org/2000/svg">
  <path d="M21.1641 6.69232L25.3229 10.8506V23.6396C25.3229 24.6791 24.4766 25.5495 23.4128 25.5495H8.37359C7.3339 25.5495 6.46347 24.7033 6.46347 23.6396V8.60221C6.46347 7.56265 7.30972 6.69232 8.37359 6.69232H21.1641V6.69232ZM21.2609 6.45056H8.37359C7.18883 6.45056 6.22168 7.41759 6.22168 8.60221V23.6396C6.22168 24.8242 7.18883 25.7912 8.37359 25.7912H23.4128C24.5975 25.7912 25.5647 24.8242 25.5647 23.6396V10.7539L21.2609 6.45056Z" stroke="#657181" stroke-width="0.5"/>
  <path d="M20.4738 16.6505C20.7409 16.6505 20.9574 16.867 20.9574 17.1341V22.1187C20.9574 22.3857 20.7409 22.6022 20.4738 22.6022H11.2859C11.0188 22.6022 10.8023 22.3857 10.8023 22.1187V17.1341C10.8023 16.867 11.0188 16.6505 11.2859 16.6505H20.4738ZM21.1992 16.7621C21.1992 16.4951 20.9827 16.2786 20.7156 16.2786H11.0441C10.7771 16.2786 10.5605 16.4951 10.5605 16.7621V22.4906C10.5605 22.7577 10.7771 22.9742 11.0441 22.9742H20.7156C20.9827 22.9742 21.1992 22.7577 21.1992 22.4906V16.7621Z" stroke="#657181" stroke-width="0.44"/>
  <path d="M20.9574 6.74867V10.5163C20.9574 10.7834 20.7409 10.9999 20.4738 10.9999H11.2859C11.0188 10.9999 10.8023 10.7834 10.8023 10.5163V6.74867H20.9574ZM21.1992 6.48297H10.5605V10.782C10.5605 11.0491 10.7771 11.2656 11.0441 11.2656H20.7156C20.9827 11.2656 21.1992 11.0491 21.1992 10.782V6.48297Z" stroke="#657181" stroke-width="0.44"/>
</svg>
