<svg width="10" height="12" viewBox="0 0 10 12" fill="none" xmlns="http://www.w3.org/2000/svg">
<path d="M5.33984 5.75C5.06641 5.50391 4.65625 5.50391 4.41016 5.75L0.691406 9.46875C0.417969 9.74219 0.417969 10.1523 0.691406 10.3984L1.29297 11.0273C1.56641 11.2734 1.97656 11.2734 2.22266 11.0273L4.875 8.375L7.5 11.0273C7.74609 11.2734 8.18359 11.2734 8.42969 11.0273L9.05859 10.3984C9.30469 10.1523 9.30469 9.74219 9.05859 9.46875L5.33984 5.75ZM4.41016 0.5L0.691406 4.21875C0.417969 4.49219 0.417969 4.90234 0.691406 5.14844L1.29297 5.77734C1.56641 6.02344 1.97656 6.02344 2.22266 5.77734L4.84766 3.125L7.5 5.77734C7.74609 6.02344 8.15625 6.02344 8.42969 5.77734L9.03125 5.14844C9.30469 4.90234 9.30469 4.46484 9.03125 4.21875L5.3125 0.5C5.06641 0.253906 4.65625 0.253906 4.41016 0.5Z" fill="#3980E8"/>
</svg>
