<svg width="24" height="24" viewBox="0 0 24 24" fill="none"
  xmlns="http://www.w3.org/2000/svg">
  <path d="M11.4102 11.7773C11.6562 12.0234 12.0664 12.0234 12.3398 11.7773L16.0586 8.05859C16.3047 7.78516 16.3047 7.375 16.0586 7.12891L15.4297 6.5C15.1562 6.25391 14.7461 6.25391 14.5 6.5L11.8477 9.15234L9.22266 6.5C8.97656 6.25391 8.56641 6.25391 8.29297 6.5L7.69141 7.12891C7.41797 7.375 7.41797 7.78516 7.69141 8.05859L11.4102 11.7773ZM12.3398 17.0273L16.0586 13.3086C16.3047 13.0352 16.3047 12.625 16.0586 12.3789L15.4297 11.75C15.1836 11.5039 14.7461 11.5039 14.5 11.75L11.875 14.4023L9.22266 11.75C8.97656 11.5039 8.56641 11.5039 8.29297 11.75L7.69141 12.3789C7.41797 12.625 7.41797 13.0352 7.69141 13.3086L11.4102 17.0273C11.6562 17.2734 12.0664 17.2734 12.3398 17.0273Z" fill="#657990"/>
</svg>
