<svg width="24" height="24" viewBox="0 0 24 24" fill="none" xmlns="http://www.w3.org/2000/svg">
<path d="M12.3398 11.75C12.0664 11.5039 11.6562 11.5039 11.4102 11.75L7.69141 15.4688C7.41797 15.7422 7.41797 16.1523 7.69141 16.3984L8.29297 17.0273C8.56641 17.2734 8.97656 17.2734 9.22266 17.0273L11.875 14.375L14.5 17.0273C14.7461 17.2734 15.1836 17.2734 15.4297 17.0273L16.0586 16.3984C16.3047 16.1523 16.3047 15.7422 16.0586 15.4688L12.3398 11.75ZM11.4102 6.5L7.69141 10.2188C7.41797 10.4922 7.41797 10.9023 7.69141 11.1484L8.29297 11.7773C8.56641 12.0234 8.97656 12.0234 9.22266 11.7773L11.8477 9.125L14.5 11.7773C14.7461 12.0234 15.1562 12.0234 15.4297 11.7773L16.0312 11.1484C16.3047 10.9023 16.3047 10.4648 16.0312 10.2188L12.3125 6.5C12.0664 6.25391 11.6562 6.25391 11.4102 6.5Z" fill="#657990"/>
</svg>
