<svg width="18" height="18" viewBox="0 0 18 18" fill="none" xmlns="http://www.w3.org/2000/svg">
<path fill-rule="evenodd" clip-rule="evenodd" d="M3.7262 2.00043C3.51102 2.00043 3.7262 2.00043 3.33658 2.00043V13.8725C3.33658 14.0821 3.33658 13.8725 3.33658 14.252H15.9157C15.9157 13.8725 15.9157 14.0821 15.9157 13.8725V8.1262H16.6949V13.8725C16.6949 14.5012 16.1716 15.0109 15.5261 15.0109H3.7262C3.08066 15.0109 2.55734 14.5012 2.55734 13.8725V2.3799C2.55734 1.75117 3.08066 1.24148 3.7262 1.24148H11.2574L11.2574 2.00043L3.7262 2.00043Z" fill="#506072"/>
<path fill-rule="evenodd" clip-rule="evenodd" d="M0.382327 4.41909C0.592542 4.41909 0.382327 4.41904 0.761255 4.41904V16.3879C0.761255 16.5926 0.761255 16.3879 0.761255 16.7586H14.5182C14.5199 17.1293 14.5199 16.9245 14.5199 17.1293C14.5199 17.334 14.5199 17.1293 14.5182 17.5H1.14188C0.511238 17.5 0 17.0021 0 16.3879V4.41904C0.382327 4.41909 0.172112 4.41909 0.382327 4.41909Z" fill="#506072"/>
<path fill-rule="evenodd" clip-rule="evenodd" d="M17.6846 0.640548C18.0253 0.880391 18.1019 1.34387 17.8557 1.67576L12.3978 9.03154C11.8488 9.77153 10.7501 9.85712 10.0872 9.21153L6.36908 5.59021C6.07179 5.30066 6.07179 4.83121 6.36908 4.54167C6.66637 4.25212 7.14837 4.25212 7.44566 4.54167L11.1638 8.16299L16.6217 0.80721C16.8679 0.475322 17.3438 0.400705 17.6846 0.640548Z" fill="#506072"/>
</svg>
