<svg width="19" height="18" viewBox="0 0 19 18" fill="none" xmlns="http://www.w3.org/2000/svg">
<path fill-rule="evenodd" clip-rule="evenodd" d="M6.85 0C7.0433 0 7.2 0.1567 7.2 0.35V3.85H6.5V0.7H0.7V8.8501H7.50503L6.10251 7.44759L6.59749 6.95261L8.59749 8.95261C8.73417 9.08929 8.73417 9.3109 8.59749 9.44759L6.59749 11.4476L6.10251 10.9526L7.50503 9.5501H0.7V17H6.5V13.85H7.2V17.35C7.2 17.5433 7.0433 17.7 6.85 17.7H0.349999C0.1567 17.7 0 17.5433 0 17.35V0.35C0 0.1567 0.1567 0 0.349999 0H6.85ZM10.9949 9.5502L12.3974 10.9527L11.9025 11.4477L9.90246 9.44768C9.76578 9.311 9.76578 9.08939 9.90246 8.95271L11.9025 6.95271L12.3974 7.44768L10.9949 8.85019H18.15V0.7H12.35V3.85H11.65V0.35C11.65 0.1567 11.8067 0 12 0H18.5C18.6933 0 18.85 0.1567 18.85 0.35V17.35C18.85 17.5433 18.6933 17.7 18.5 17.7H12C11.8067 17.7 11.65 17.5433 11.65 17.35V13.85H12.35V17H18.15V9.5502H10.9949Z" fill="#657181"/>
</svg>
