<svg width="32" height="32" viewBox="0 0 32 32" fill="none" xmlns="http://www.w3.org/2000/svg">
  <path fill-rule="evenodd" clip-rule="evenodd" d="M7.7 12.3V7.7H24.3V12.3H7.7ZM7 7.6C7 7.26863 7.26863 7 7.6 7H24.4C24.7314 7 25 7.26863 25 7.6V12.4C25 12.7314 24.7314 13 24.4 13H7.6C7.26863 13 7 12.7314 7 12.4V7.6ZM7.7 25.3V15.7H14.3V25.3H7.7ZM7 15.6C7 15.2686 7.26863 15 7.6 15H14.4C14.7314 15 15 15.2686 15 15.6V25.4C15 25.7314 14.7314 26 14.4 26H7.6C7.26863 26 7 25.7314 7 25.4V15.6ZM17.7 22.7V25.3H24.3V22.7H17.7ZM17.6 22C17.2686 22 17 22.2686 17 22.6V25.4C17 25.7314 17.2686 26 17.6 26H24.4C24.7314 26 25 25.7314 25 25.4V22.6C25 22.2686 24.7314 22 24.4 22H17.6ZM17.7 19.3V15.7H24.3V19.3H17.7ZM17 15.6C17 15.2686 17.2686 15 17.6 15H24.4C24.7314 15 25 15.2686 25 15.6V19.4C25 19.7314 24.7314 20 24.4 20H17.6C17.2686 20 17 19.7314 17 19.4V15.6Z" fill="#657181"/>
</svg>