<svg width="32" height="32" viewBox="0 0 32 32" fill="none" xmlns="http://www.w3.org/2000/svg">
  <path fill-rule="evenodd" clip-rule="evenodd" d="M16.2146 25.9648C15.9824 25.9453 15.8188 25.7332 15.8481 25.5021C15.8774 25.271 16.0886 25.1084 16.3208 25.127C18.1161 25.271 19.9175 24.8824 21.4976 24.0051C23.2008 23.0594 24.558 21.5951 25.3718 19.8251C26.1857 18.0551 26.4138 16.0716 26.0229 14.1631C25.6321 12.2545 24.6427 10.5204 23.1986 9.21276C21.7545 7.90513 19.931 7.09219 17.9931 6.89212C16.0553 6.69205 14.1041 7.11528 12.4233 8.10028C10.7425 9.08528 9.41968 10.5807 8.64715 12.3691C7.96178 13.9558 7.74124 15.6997 8.004 17.3991L10.104 15.6737C10.2534 15.551 10.4739 15.5726 10.5966 15.7219C10.7193 15.8713 10.6977 16.0918 10.5484 16.2146L7.81663 18.459C7.66727 18.5817 7.44672 18.5601 7.32401 18.4107L5.07958 15.679C4.95687 15.5296 4.97847 15.3091 5.12782 15.1864C5.27718 15.0636 5.49773 15.0852 5.62044 15.2346L7.10747 17.0445C6.92879 15.3432 7.18896 13.6173 7.87262 12.0346C8.71633 10.0814 10.161 8.44813 11.9967 7.37237C13.8324 6.29661 15.9633 5.83438 18.0798 6.05288C20.1962 6.27139 22.1877 7.15924 23.7649 8.58736C25.3421 10.0155 26.4226 11.9094 26.8495 13.9938C27.2763 16.0782 27.0272 18.2445 26.1384 20.1776C25.2495 22.1107 23.7673 23.7099 21.9071 24.7427C20.1701 25.7072 18.1881 26.1309 16.2146 25.9648ZM14.2893 14.099C14.426 13.9623 14.6476 13.9623 14.7842 14.099L16.7868 16.1015L18.7893 14.099C18.926 13.9623 19.1476 13.9623 19.2842 14.099C19.4209 14.2356 19.4209 14.4573 19.2842 14.5939L17.2817 16.5965L19.2842 18.599C19.4209 18.7356 19.4209 18.9573 19.2842 19.0939C19.1476 19.2306 18.926 19.2306 18.7893 19.0939L16.7868 17.0914L14.7842 19.0939C14.6476 19.2306 14.426 19.2306 14.2893 19.0939C14.1526 18.9573 14.1526 18.7356 14.2893 18.599L16.2918 16.5965L14.2893 14.5939C14.1526 14.4573 14.1526 14.2356 14.2893 14.099Z" fill="#657181"/>
</svg>
