<svg width="32" height="32" viewBox="0 0 32 32" fill="none" xmlns="http://www.w3.org/2000/svg">
  <path fill-rule="evenodd" clip-rule="evenodd" d="M7 10.3496C7 10.1563 7.1567 9.99963 7.35 9.99963H25.35C25.5433 9.99963 25.7 10.1563 25.7 10.3496C25.7 10.5429 25.5433 10.6996 25.35 10.6996H7.35C7.1567 10.6996 7 10.5429 7 10.3496ZM7 16.3496C7 16.1563 7.1567 15.9996 7.35 15.9996H25.35C25.5433 15.9996 25.7 16.1563 25.7 16.3496C25.7 16.5429 25.5433 16.6996 25.35 16.6996H7.35C7.1567 16.6996 7 16.5429 7 16.3496ZM7.35 21.9996C7.1567 21.9996 7 22.1563 7 22.3496C7 22.5429 7.1567 22.6996 7.35 22.6996H25.35C25.5433 22.6996 25.7 22.5429 25.7 22.3496C25.7 22.1563 25.5433 21.9996 25.35 21.9996H7.35Z" fill="#657181"/>
</svg>
