<svg width="20" height="18" viewBox="0 0 20 18" fill="none" xmlns="http://www.w3.org/2000/svg">
<path fill-rule="evenodd" clip-rule="evenodd" d="M12.9837 0.7875H7.43368V5.60588H12.9837V0.7875ZM6.73368 0.7875V5.60588H0.7V1.125C0.7 0.938604 0.834315 0.7875 1 0.7875H6.73368ZM6.73368 6.39338H0.7V11.6066H6.73368V6.39338ZM6.73368 12.3941H0.7V16.875C0.7 17.0614 0.834315 17.2125 1 17.2125H6.73368V12.3941ZM7.43368 12.3941H12.9837V17.2125H7.43368V12.3941ZM12.9837 11.6066H7.43368V6.39338H12.9837V11.6066ZM13.6837 12.3941V17.2125H19C19.1657 17.2125 19.3 17.0614 19.3 16.875V12.3941H13.6837ZM19.3 11.6066H13.6837V6.39338H19.3V11.6066ZM19.3 1.125V5.60588H13.6837V0.7875H19C19.1657 0.7875 19.3 0.938604 19.3 1.125ZM1 0C0.447715 0 0 0.50368 0 1.125V16.875C0 17.4963 0.447716 18 1 18H19C19.5523 18 20 17.4963 20 16.875V1.125C20 0.50368 19.5523 0 19 0H1Z" fill="#506072"/>
</svg>
