<svg width="32" height="32" viewBox="0 0 32 32" fill="none" xmlns="http://www.w3.org/2000/svg">
  <path d="M22.8522 22.1424C22.899 22.1889 22.9362 22.2441 22.9616 22.3051C22.9869 22.366 23 22.4313 23 22.4973C23 22.5633 22.9869 22.6286 22.9616 22.6895C22.9362 22.7504 22.899 22.8057 22.8522 22.8522C22.8057 22.899 22.7504 22.9362 22.6895 22.9616C22.6286 22.9869 22.5633 23 22.4973 23C22.4313 23 22.366 22.9869 22.3051 22.9616C22.2442 22.9362 22.1889 22.899 22.1425 22.8522L16 16.7043L9.85754 22.8522C9.81108 22.899 9.7558 22.9362 9.6949 22.9616C9.634 22.9869 9.56867 23 9.50269 23C9.43671 23 9.37139 22.9869 9.31048 22.9616C9.24958 22.9362 9.1943 22.899 9.14784 22.8522C9.10099 22.8057 9.06381 22.7504 9.03844 22.6895C9.01306 22.6286 9 22.5633 9 22.4973C9 22.4313 9.01306 22.366 9.03844 22.3051C9.06381 22.2441 9.10099 22.1889 9.14784 22.1424L15.2953 15.9996L9.14784 9.85674C9.05373 9.76262 9.00085 9.63497 9.00085 9.50187C9.00085 9.43596 9.01383 9.3707 9.03905 9.30981C9.06427 9.24892 9.10124 9.1936 9.14784 9.14699C9.19444 9.10039 9.24976 9.06342 9.31065 9.0382C9.37153 9.01298 9.43679 9 9.50269 9C9.63579 9 9.76343 9.05288 9.85754 9.14699L16 15.2948L22.1425 9.14699C22.2366 9.05288 22.3642 9 22.4973 9C22.6304 9 22.758 9.05288 22.8522 9.14699C22.9463 9.24111 22.9991 9.36876 22.9991 9.50187C22.9991 9.63497 22.9463 9.76262 22.8522 9.85674L16.7047 15.9996L22.8522 22.1424Z" fill="#657181"/>
</svg>
