<svg width="32" height="32" viewBox="0 0 32 32" fill="none" xmlns="http://www.w3.org/2000/svg">
  <path fill-rule="evenodd" clip-rule="evenodd" d="M8.35 7C8.5433 7 8.7 7.1567 8.7 7.35V25.35C8.7 25.5433 8.5433 25.7 8.35 25.7C8.1567 25.7 8 25.5433 8 25.35V7.35C8 7.1567 8.1567 7 8.35 7ZM10.7 9.7V13.3H23.3V9.7H10.7ZM10.6 9C10.2686 9 10 9.26863 10 9.6V13.4C10 13.7314 10.2686 14 10.6 14H23.4C23.7314 14 24 13.7314 24 13.4V9.6C24 9.26863 23.7314 9 23.4 9H10.6ZM10.7 20.3V16.7H18.3V20.3H10.7ZM10 16.6C10 16.2686 10.2686 16 10.6 16H18.4C18.7314 16 19 16.2686 19 16.6V20.4C19 20.7314 18.7314 21 18.4 21H10.6C10.2686 21 10 20.7314 10 20.4V16.6Z" fill="#657181"/>
</svg>
