<svg width="32" height="32" viewBox="0 0 32 32" fill="none" xmlns="http://www.w3.org/2000/svg">
  <path d="M12.96 15.7788C12.96 16.8071 12.6992 17.6157 12.1777 18.2046C11.6592 18.7935 10.937 19.0879 10.0112 19.0879C9.06494 19.0879 8.33398 18.7993 7.81836 18.2222C7.30566 17.6421 7.04932 16.8247 7.04932 15.77C7.04932 14.7241 7.30713 13.9141 7.82275 13.3398C8.33838 12.7627 9.0708 12.4741 10.02 12.4741C10.9429 12.4741 11.6636 12.7671 12.1821 13.353C12.7007 13.939 12.96 14.7476 12.96 15.7788ZM7.84033 15.7788C7.84033 16.6489 8.0249 17.3096 8.39404 17.7607C8.76611 18.209 9.30518 18.4331 10.0112 18.4331C10.7231 18.4331 11.2607 18.209 11.624 17.7607C11.9873 17.3125 12.1689 16.6519 12.1689 15.7788C12.1689 14.9146 11.9873 14.2598 11.624 13.8145C11.2637 13.3662 10.729 13.1421 10.02 13.1421C9.30811 13.1421 8.76611 13.3677 8.39404 13.8188C8.0249 14.2671 7.84033 14.9204 7.84033 15.7788ZM17.1479 13.1509C16.4419 13.1509 15.8838 13.3867 15.4736 13.8584C15.0664 14.3271 14.8628 14.9702 14.8628 15.7876C14.8628 16.6284 15.0591 17.2788 15.4517 17.7388C15.8472 18.1958 16.4097 18.4243 17.1392 18.4243C17.5874 18.4243 18.0986 18.3438 18.6729 18.1826V18.8374C18.2275 19.0044 17.6782 19.0879 17.0249 19.0879C16.0786 19.0879 15.3477 18.8008 14.832 18.2266C14.3193 17.6523 14.063 16.8364 14.063 15.7788C14.063 15.1167 14.186 14.5366 14.4321 14.0386C14.6812 13.5405 15.0386 13.1567 15.5044 12.8872C15.9731 12.6177 16.5239 12.4829 17.1567 12.4829C17.8306 12.4829 18.4194 12.606 18.9233 12.8521L18.6069 13.4937C18.1206 13.2651 17.6343 13.1509 17.1479 13.1509ZM20.8218 16.3281V19H20.0747V12.5752H21.8369C22.625 12.5752 23.2065 12.7261 23.5815 13.0278C23.9595 13.3296 24.1484 13.7837 24.1484 14.3901C24.1484 15.2397 23.7178 15.814 22.8564 16.1128L24.6011 19H23.7178L22.1621 16.3281H20.8218ZM20.8218 15.6865H21.8457C22.373 15.6865 22.7598 15.5825 23.0059 15.3745C23.252 15.1636 23.375 14.8486 23.375 14.4297C23.375 14.0049 23.249 13.6987 22.9971 13.5112C22.748 13.3237 22.3467 13.23 21.793 13.23H20.8218V15.6865Z" fill="#657181"/>
  <rect x="4.35" y="5.35" width="23.3" height="21.3" rx="1.65" stroke="#657181" stroke-width="0.7"/>
</svg>
