<svg width="32" height="32" viewBox="0 0 32 32" fill="none" xmlns="http://www.w3.org/2000/svg">
  <path fill-rule="evenodd" clip-rule="evenodd" d="M5.7 12.3V9.7H8.3V12.3H5.7ZM5 9.6C5 9.26863 5.26863 9 5.6 9H8.4C8.73137 9 9 9.26863 9 9.6V12.4C9 12.7314 8.73137 13 8.4 13H5.6C5.26863 13 5 12.7314 5 12.4V9.6ZM11.7 12.3V9.7H25.3V12.3H11.7ZM11 9.6C11 9.26863 11.2686 9 11.6 9H25.4C25.7314 9 26 9.26863 26 9.6V12.4C26 12.7314 25.7314 13 25.4 13H11.6C11.2686 13 11 12.7314 11 12.4V9.6ZM11.7 15.7V18.3H25.3V15.7H11.7ZM11.6 15C11.2686 15 11 15.2686 11 15.6V18.4C11 18.7314 11.2686 19 11.6 19H25.4C25.7314 19 26 18.7314 26 18.4V15.6C26 15.2686 25.7314 15 25.4 15H11.6ZM11.7 24.3V21.7H25.3V24.3H11.7ZM11 21.6C11 21.2686 11.2686 21 11.6 21H25.4C25.7314 21 26 21.2686 26 21.6V24.4C26 24.7314 25.7314 25 25.4 25H11.6C11.2686 25 11 24.7314 11 24.4V21.6Z" fill="#657181"/>
</svg>
