<svg width="32" height="32" viewBox="0 0 32 32" fill="none" xmlns="http://www.w3.org/2000/svg">
  <path d="M10.5424 6.31137C10.7034 6.18418 10.9428 6.32171 10.9202 6.51376L10.5699 9.49057C13.4086 7.29164 17.3135 6.99407 20.4656 8.75009C23.6388 10.5327 25.429 14.04 25.0157 17.6542C24.5786 21.2658 22.0228 24.2646 18.5223 25.2662C15.0107 26.2547 11.2599 25.0373 9.00371 22.1812C8.81306 21.9398 9.1753 21.6537 9.36596 21.895C11.5055 24.6034 15.0806 25.7644 18.3914 24.8252C21.7157 23.8758 24.1558 21.034 24.5597 17.601C24.9636 14.1681 23.2633 10.8297 20.2361 9.14913C17.257 7.4742 13.5604 7.75964 10.8559 9.85258L13.8224 10.1875C14.1345 10.224 14.0674 10.6907 13.7687 10.6436L10.2501 10.2441C10.1194 10.2166 10.0347 10.1094 10.0488 9.98935L10.464 6.46039C10.4591 6.39897 10.5024 6.34299 10.5424 6.31137Z" fill="#657181" stroke="#657181" stroke-width="0.4"/>
</svg>
