<svg width="18" height="18" viewBox="0 0 18 18" fill="none" xmlns="http://www.w3.org/2000/svg">
<path fill-rule="evenodd" clip-rule="evenodd" d="M13.7 13.7V10.3C13.7 10.1343 13.8343 10 14 10C14.1657 10 14.3 10.1343 14.3 10.3V13.7H17.7C17.8657 13.7 18 13.8343 18 14C18 14.1657 17.8657 14.3 17.7 14.3H14.3V17.7C14.3 17.8657 14.1657 18 14 18C13.8343 18 13.7 17.8657 13.7 17.7V14.3H10.3C10.1343 14.3 10 14.1657 10 14C10 13.8343 10.1343 13.7 10.3 13.7H13.7ZM7 0.7H1C0.834315 0.7 0.7 0.834315 0.7 1V7C0.7 7.16569 0.834315 7.3 1 7.3H7C7.16569 7.3 7.3 7.16569 7.3 7V1C7.3 0.834315 7.16569 0.7 7 0.7ZM1 0C0.447715 0 0 0.447715 0 1V7C0 7.55228 0.447715 8 1 8H7C7.55228 8 8 7.55228 8 7V1C8 0.447715 7.55228 0 7 0H1ZM7 10.7H1C0.834315 10.7 0.7 10.8343 0.7 11V17C0.7 17.1657 0.834315 17.3 1 17.3H7C7.16569 17.3 7.3 17.1657 7.3 17V11C7.3 10.8343 7.16569 10.7 7 10.7ZM1 10C0.447715 10 0 10.4477 0 11V17C0 17.5523 0.447715 18 1 18H7C7.55228 18 8 17.5523 8 17V11C8 10.4477 7.55228 10 7 10H1ZM11 0.7H17C17.1657 0.7 17.3 0.834315 17.3 1V7C17.3 7.16569 17.1657 7.3 17 7.3H11C10.8343 7.3 10.7 7.16569 10.7 7V1C10.7 0.834315 10.8343 0.7 11 0.7ZM10 1C10 0.447715 10.4477 0 11 0H17C17.5523 0 18 0.447715 18 1V7C18 7.55228 17.5523 8 17 8H11C10.4477 8 10 7.55228 10 7V1Z" fill="#657181"/>
</svg>
