<svg width="20" height="16" viewBox="0 0 20 16" fill="none" xmlns="http://www.w3.org/2000/svg">
<path fill-rule="evenodd" clip-rule="evenodd" d="M0.7 3.3V0.7H19.3V3.3H0.7ZM0 0.6C0 0.268629 0.268629 0 0.6 0H19.4C19.7314 0 20 0.268629 20 0.6V3.4C20 3.73137 19.7314 4 19.4 4H0.6C0.26863 4 0 3.73137 0 3.4V0.6ZM0.7 6.7V9.3H19.3V6.7H0.7ZM0.6 6C0.268629 6 0 6.26863 0 6.6V9.4C0 9.73137 0.26863 10 0.6 10H19.4C19.7314 10 20 9.73137 20 9.4V6.6C20 6.26863 19.7314 6 19.4 6H0.6ZM0.7 15.3V12.7H19.3V15.3H0.7ZM0 12.6C0 12.2686 0.268629 12 0.6 12H19.4C19.7314 12 20 12.2686 20 12.6V15.4C20 15.7314 19.7314 16 19.4 16H0.6C0.26863 16 0 15.7314 0 15.4V12.6Z" fill="#506072"/>
</svg>
