<svg width="32" height="32" viewBox="0 0 32 32" fill="none" xmlns="http://www.w3.org/2000/svg">
  <path d="M22.4576 6.31137C22.2966 6.18418 22.0572 6.32171 22.0798 6.51376L22.4301 9.49057C19.5914 7.29164 15.6865 6.99407 12.5344 8.75009C9.36121 10.5327 7.57102 14.04 7.98431 17.6542C8.42143 21.2658 10.9772 24.2646 14.4777 25.2662C17.9893 26.2547 21.7401 25.0373 23.9963 22.1812C24.1869 21.9398 23.8247 21.6537 23.634 21.895C21.4945 24.6034 17.9194 25.7644 14.6086 24.8252C11.2843 23.8758 8.84422 21.034 8.44029 17.601C8.03636 14.1681 9.7367 10.8297 12.7639 9.14913C15.743 7.4742 19.4396 7.75964 22.1441 9.85258L19.1776 10.1875C18.8655 10.224 18.9326 10.6907 19.2313 10.6436L22.7499 10.2441C22.8806 10.2166 22.9653 10.1094 22.9512 9.98935L22.536 6.46039C22.5409 6.39897 22.4976 6.34299 22.4576 6.31137Z" fill="#657181" stroke="#657181" stroke-width="0.4"/>
</svg>
