<svg width="32" height="32" viewBox="0 0 32 32" fill="none" xmlns="http://www.w3.org/2000/svg">
  <path fill-rule="evenodd" clip-rule="evenodd" d="M12.5437 13.675V9.075H25.1437V13.675H12.5437ZM11.8438 8.975C11.8438 8.64363 12.1124 8.375 12.4437 8.375H25.2437C25.5751 8.375 25.8438 8.64363 25.8438 8.975V13.775C25.8438 14.1064 25.5751 14.375 25.2437 14.375H12.4438C12.1124 14.375 11.8438 14.1064 11.8438 13.775V8.975ZM12.5437 21.675V17.075H20.1438V21.675H12.5437ZM11.8438 16.975C11.8438 16.6436 12.1124 16.375 12.4437 16.375H20.2437C20.5751 16.375 20.8438 16.6436 20.8438 16.975V21.775C20.8438 22.1064 20.5751 22.375 20.2437 22.375H12.4438C12.1124 22.375 11.8438 22.1064 11.8438 21.775V16.975ZM7.46875 13.375V9.9375H7V9.46875C7.31413 9.35645 7.52246 9.2002 7.625 9H8.09375V13.375H7.46875ZM7.01709 20.75V21.375H9.20703V20.75H7.64453L8.73828 19.3438C8.81478 19.2347 8.87419 19.1452 8.9165 19.0752C8.96045 19.0052 9.00765 18.9165 9.05811 18.8091C9.11019 18.7017 9.14762 18.5894 9.17041 18.4722C9.19482 18.355 9.20703 18.2288 9.20703 18.0938C9.20703 17.734 9.11344 17.4549 8.92627 17.2563C8.7391 17.0562 8.4681 16.9561 8.11328 16.9561C7.73568 16.9561 7.45898 17.0692 7.2832 17.2954C7.10742 17.5216 7.01953 17.8398 7.01953 18.25V18.4062H7.64453V18.25C7.64453 18.1475 7.65186 18.0531 7.6665 17.9668C7.68115 17.8789 7.70475 17.7959 7.7373 17.7178C7.77148 17.6396 7.82031 17.5786 7.88379 17.5347C7.94727 17.4907 8.02376 17.4688 8.11328 17.4688C8.26465 17.4688 8.38021 17.5298 8.45996 17.6519C8.54134 17.7723 8.58203 17.9196 8.58203 18.0938C8.58203 18.154 8.57796 18.2134 8.56982 18.272C8.56169 18.3289 8.55273 18.3794 8.54297 18.4233C8.5332 18.4657 8.51611 18.5145 8.4917 18.5698C8.46891 18.6252 8.4502 18.6683 8.43555 18.6992C8.42253 18.7285 8.39811 18.7716 8.3623 18.8286L8.28662 18.9458C8.27197 18.967 8.24268 19.0085 8.19873 19.0703L8.11328 19.1875L7.01709 20.75Z" fill="#657181"/>
</svg>
