<svg width="32" height="32" viewBox="0 0 32 32" fill="none" xmlns="http://www.w3.org/2000/svg">
<circle cx="16" cy="16" r="10" stroke="#657181" stroke-width="0.7"/>
<path d="M10.6904 12.9781C10.7063 13.0164 10.7295 13.0512 10.7588 13.0804L12.641 14.9625C12.7001 15.0197 12.7794 15.0513 12.8616 15.0506C12.9439 15.0499 13.0225 15.0169 13.0807 14.9587C13.1389 14.9006 13.1719 14.8219 13.1726 14.7396C13.1733 14.6574 13.1417 14.5781 13.0845 14.519L11.7375 13.172H21.0184C21.1016 13.172 21.1814 13.1389 21.2402 13.0801C21.2991 13.0213 21.3321 12.9415 21.3321 12.8583C21.3321 12.7751 21.2991 12.6953 21.2402 12.6365C21.1814 12.5777 21.1016 12.5446 21.0184 12.5446H11.7375L13.0839 11.1982C13.141 11.1391 13.1727 11.0598 13.1719 10.9776C13.1712 10.8953 13.1382 10.8167 13.0801 10.7585C13.0219 10.7003 12.9432 10.6674 12.861 10.6666C12.7787 10.6659 12.6995 10.6975 12.6403 10.7547L10.7582 12.6368C10.7142 12.6807 10.6843 12.7366 10.6721 12.7974C10.6599 12.8583 10.6661 12.9214 10.6898 12.9788L10.6904 12.9781Z" fill="#657181"/>
<path d="M21.3087 19.0123C21.2929 18.974 21.2696 18.9393 21.2403 18.91L19.3581 17.0279C19.299 16.9707 19.2197 16.9391 19.1375 16.9398C19.0552 16.9405 18.9766 16.9735 18.9184 17.0317C18.8602 17.0899 18.8272 17.1685 18.8265 17.2508C18.8258 17.333 18.8574 17.4123 18.9146 17.4714L20.2616 18.8184H10.9807C10.8975 18.8184 10.8177 18.8515 10.7589 18.9103C10.7 18.9691 10.667 19.0489 10.667 19.1321C10.667 19.2153 10.7 19.2951 10.7589 19.3539C10.8177 19.4128 10.8975 19.4458 10.9807 19.4458H20.2616L18.9152 20.7922C18.8852 20.8211 18.8613 20.8557 18.8449 20.894C18.8285 20.9323 18.8198 20.9734 18.8195 21.0151C18.8191 21.0567 18.827 21.098 18.8428 21.1366C18.8586 21.1751 18.8819 21.2102 18.9113 21.2396C18.9408 21.2691 18.9758 21.2924 19.0143 21.3081C19.0529 21.3239 19.0942 21.3319 19.1359 21.3315C19.1775 21.3311 19.2187 21.3225 19.2569 21.306C19.2952 21.2896 19.3298 21.2657 19.3588 21.2357L21.2409 19.3536C21.2849 19.3098 21.3148 19.2539 21.327 19.193C21.3392 19.1321 21.333 19.069 21.3093 19.0117L21.3087 19.0123Z" fill="#657181"/>
</svg>
