<svg width="32" height="32" viewBox="0 0 32 32" fill="none" xmlns="http://www.w3.org/2000/svg">
  <path d="M16.0001 5.5C21.7898 5.5 26.5 9.57909 26.5 14.5934C26.5 16.5067 25.8219 18.3372 24.5386 19.8872C24.2085 20.2857 24.0811 20.4091 24.0589 20.4297C23.767 20.7022 23.6009 21.1894 23.6468 21.4435L24.3279 25.1761C24.3993 25.5657 24.2927 25.793 24.1912 25.9153C24.0764 26.0527 23.9105 26.1281 23.7241 26.1281C23.5493 26.1281 23.3631 26.0623 23.1704 25.9323L19.6186 23.5334C19.4506 23.42 19.1389 23.3372 18.8785 23.3372C18.8071 23.3372 18.7408 23.3437 18.6874 23.3552C18.626 23.3689 17.1703 23.6858 15.9999 23.6858C10.2102 23.6858 5.5 19.6067 5.5 14.5934C5.50023 9.57909 10.2105 5.5 16.0001 5.5ZM16.0001 22.9429C17.0884 22.9429 18.5138 22.633 18.5283 22.6297C18.983 22.5294 19.6545 22.661 20.0349 22.9177L23.5864 25.3163C23.5913 25.3196 23.596 25.3226 23.6006 25.3256C23.5997 25.3203 23.5988 25.3147 23.5976 25.3091L22.9165 21.5763C22.8192 21.0419 23.0922 20.3158 23.55 19.8888C23.5512 19.8874 23.6646 19.7775 23.9665 19.4133C25.138 17.9981 25.7573 16.3317 25.7573 14.5934C25.7571 9.98835 21.3803 6.24269 16.0001 6.24269C10.62 6.24269 6.24316 9.98835 6.24316 14.5931C6.24316 19.1972 10.62 22.9429 16.0001 22.9429Z" fill="#657181" stroke="#657181" stroke-width="0.1"/>
  <path d="M15.7466 15.1428C15.7466 15.3401 15.9065 15.5 16.1038 15.5C16.301 15.5 16.4609 15.3401 16.4609 15.1428C16.4609 14.9456 16.301 14.7857 16.1038 14.7857C15.9065 14.7857 15.7466 14.9456 15.7466 15.1428Z" fill="#657181" stroke="#657181"/>
  <path d="M11.357 15.1428C11.357 15.3401 11.5169 15.5 11.7141 15.5C11.9114 15.5 12.0713 15.3401 12.0713 15.1428C12.0713 14.9456 11.9114 14.7857 11.7141 14.7857C11.5169 14.7857 11.357 14.9456 11.357 15.1428Z" fill="#657181" stroke="#657181"/>
  <path d="M20.1363 15.1428C20.1363 15.3401 20.2962 15.5 20.4934 15.5C20.6907 15.5 20.8506 15.3401 20.8506 15.1428C20.8506 14.9456 20.6907 14.7857 20.4934 14.7857C20.2962 14.7857 20.1363 14.9456 20.1363 15.1428Z" fill="#657181" stroke="#657181"/>
</svg>
