<svg width="32" height="32" viewBox="0 0 32 32" fill="none" xmlns="http://www.w3.org/2000/svg">
  <path fill-rule="evenodd" clip-rule="evenodd" d="M16 22.8C11.3962 22.8 7.44751 19.9965 5.75611 16C7.44751 12.0035 11.3962 9.2 16 9.2C20.6038 9.2 24.5525 12.0035 26.2439 16C24.5525 19.9965 20.6038 22.8 16 22.8ZM16 8.5C21 8.5 25.27 11.61 27 16C25.27 20.39 21 23.5 16 23.5C11 23.5 6.73 20.39 5 16C6.73 11.61 11 8.5 16 8.5ZM20.3 16C20.3 18.3748 18.3748 20.3 16 20.3C13.6252 20.3 11.7 18.3748 11.7 16C11.7 13.6252 13.6252 11.7 16 11.7C18.3748 11.7 20.3 13.6252 20.3 16ZM21 16C21 18.7614 18.7614 21 16 21C13.2386 21 11 18.7614 11 16C11 13.2386 13.2386 11 16 11C18.7614 11 21 13.2386 21 16Z" fill="#657181"/>
</svg>
