<svg width="19" height="18" viewBox="0 0 19 18" fill="none" xmlns="http://www.w3.org/2000/svg">
<path fill-rule="evenodd" clip-rule="evenodd" d="M0.35 0C0.1567 0 0 0.1567 0 0.35V3.85H0.7V0.7H8.5V9H1.19497L2.59749 7.59749L2.10251 7.10251L0.102513 9.10251C-0.0341709 9.2392 -0.0341709 9.4608 0.102513 9.59749L2.10251 11.5975L2.59749 11.1025L1.19497 9.7H8.5V17H0.7V13.85H0V17.35C0 17.5433 0.1567 17.7 0.35 17.7H8.5H8.85H17.35C17.5433 17.7 17.7 17.5433 17.7 17.35V13.85H17V17H9.2V9.7H16.9697L15.492 11.0955L15.9727 11.6045L18.0903 9.60445C18.1603 9.53834 18.2 9.44629 18.2 9.35C18.2 9.25371 18.1603 9.16166 18.0903 9.09554L15.9727 7.09555L15.492 7.60445L16.9697 9H9.2V0.7H17V3.85H17.7V0.35C17.7 0.1567 17.5433 0 17.35 0H8.85H0.35Z" fill="#657181"/>
</svg>
