<svg width="32" height="32" viewBox="0 0 32 32" fill="none" xmlns="http://www.w3.org/2000/svg">
  <path d="M15.999 6.00091C10.4787 6.00098 6 10.4797 6 15.9999C6.00007 21.5201 10.4788 26.0009 15.999 26.0009C15.9997 26.0009 16.0004 26.0009 16.001 26.0009C16.2487 26.0001 16.4954 25.9912 16.7423 25.9722C16.7435 25.9722 16.7446 25.9722 16.7458 25.9722C16.7499 25.9718 16.754 25.9715 16.7581 25.9712C16.7666 25.9707 16.775 25.9697 16.7833 25.9683C17.2196 25.9309 17.6538 25.8657 18.0814 25.7715C18.0896 25.7697 18.0977 25.7675 18.1057 25.7648C18.5428 25.6715 18.9741 25.5498 19.3948 25.3989C19.3962 25.3986 19.3975 25.3982 19.3988 25.3979C19.8466 25.236 20.2835 25.0413 20.7037 24.8173C20.7093 24.8147 20.7147 24.8118 20.7201 24.8088C21.1811 24.5617 21.6216 24.2778 22.0384 23.9617C22.0389 23.961 22.0395 23.9604 22.04 23.9597C22.5152 23.5977 22.9582 23.195 23.3613 22.7541C23.368 22.7466 23.3743 22.7386 23.3801 22.7304C23.8748 22.19 24.3096 21.5972 24.6747 20.9619C24.6768 20.9588 24.6788 20.9556 24.6807 20.9524C25.5434 19.4446 25.9974 17.7385 26 16.0014C26 16.0007 26 16.0001 26 15.9995C25.9956 14.2657 25.5417 12.5626 24.6807 11.0579C24.6757 11.0493 24.6703 11.0411 24.6644 11.0332C24.2984 10.3935 23.8645 9.79594 23.3672 9.25192C23.3653 9.24965 23.3633 9.24743 23.3613 9.24523C23.3606 9.24459 23.36 9.24394 23.3593 9.2433C22.963 8.81284 22.5299 8.42004 22.0646 8.06542C22.0573 8.05835 22.0495 8.05175 22.0414 8.04562C21.6245 7.72553 21.1821 7.43831 20.7201 7.18762C20.7124 7.18342 20.7044 7.17961 20.6963 7.17623C20.2846 6.96025 19.8572 6.77314 19.4195 6.61646C19.4133 6.61334 19.4071 6.61046 19.4007 6.60785C18.9742 6.45075 18.5366 6.32426 18.0928 6.22657C18.0883 6.22561 18.0839 6.2237 18.0794 6.22274C18.0698 6.22058 18.06 6.21901 18.0502 6.21798C17.6277 6.1309 17.2011 6.07074 16.7709 6.03896C16.7678 6.03827 16.7647 6.03762 16.7615 6.03704C16.7604 6.03694 16.7592 6.03714 16.7581 6.03704C16.7494 6.03628 16.7406 6.0361 16.7319 6.03514C16.4895 6.01457 16.2461 6.00297 16.003 6.00001C16.0017 6 16.0003 6 15.999 6.00001L15.999 6.00091ZM15.997 6.50531C16.1599 6.50723 16.3226 6.5212 16.4851 6.53154V25.4741C16.3232 25.4827 16.1612 25.4939 15.999 25.4944C10.7525 25.4943 6.50648 21.2462 6.50638 15.9997C6.50624 10.7538 10.7513 6.50626 15.997 6.50511L15.997 6.50531ZM16.9915 6.57996C17.2532 6.60656 17.5141 6.64196 17.7728 6.69023V25.3055C17.5139 25.3568 17.2537 25.3957 16.9915 25.4252V6.57996ZM18.2792 6.80842C18.5421 6.87531 18.8043 6.94521 19.0605 7.03439V24.9674C18.804 25.0544 18.5423 25.1252 18.2792 25.1899V6.80842ZM19.5654 7.23221C19.8299 7.33789 20.0923 7.44536 20.3463 7.57442V24.4222C20.0927 24.5529 19.8296 24.6625 19.5654 24.7699V7.23221ZM20.8532 7.87705C21.119 8.0379 21.3856 8.19772 21.6345 8.38391V23.6222C21.3852 23.8065 21.1192 23.9641 20.8532 24.1231V7.87705ZM22.1409 8.8191C22.4079 9.04684 22.68 9.26966 22.9203 9.52573V22.474C22.68 22.7318 22.4082 22.9568 22.1409 23.1861V8.8191ZM23.4267 10.1909C23.6991 10.54 23.9867 10.8777 24.208 11.262V20.7472C23.986 21.129 23.6992 21.4661 23.4267 21.8128V10.1909ZM24.7144 12.4601C25.1762 13.5896 25.4907 14.7738 25.4938 16.0018C25.4917 17.2321 25.1769 18.4179 24.7144 19.5495V12.4601Z" fill="#657181" stroke="#657181" stroke-width="0.1"/>
</svg>
