<svg width="18" height="18" viewBox="0 0 18 18" fill="none" xmlns="http://www.w3.org/2000/svg">
<g id="Vector">
<path fill-rule="evenodd" clip-rule="evenodd" d="M17.3 2.95H0.7L0.7 16.55H17.3V2.95ZM0.7 2.25C0.313401 2.25 0 2.5634 0 2.95V16.55C0 16.9366 0.313401 17.25 0.700001 17.25H17.3C17.6866 17.25 18 16.9366 18 16.55V2.95C18 2.5634 17.6866 2.25 17.3 2.25H0.7Z" fill="#506072"/>
<path fill-rule="evenodd" clip-rule="evenodd" d="M6 2.75C5.72386 2.75 5.5 2.52614 5.5 2.25V1.25C5.5 0.973858 5.72386 0.75 6 0.75C6.27614 0.75 6.5 0.973858 6.5 1.25V2.25C6.5 2.52614 6.27614 2.75 6 2.75Z" fill="#506072"/>
<path fill-rule="evenodd" clip-rule="evenodd" d="M12 2.75C11.7239 2.75 11.5 2.52614 11.5 2.25V1.25C11.5 0.973858 11.7239 0.75 12 0.75C12.2761 0.75 12.5 0.973858 12.5 1.25V2.25C12.5 2.52614 12.2761 2.75 12 2.75Z" fill="#506072"/>
<path fill-rule="evenodd" clip-rule="evenodd" d="M18 6.2498H0V5.5498H18V6.2498Z" fill="#506072"/>
</g>
</svg>
