<svg width="20" height="16" viewBox="0 0 20 16" fill="none" xmlns="http://www.w3.org/2000/svg">
<path fill-rule="evenodd" clip-rule="evenodd" d="M0.7 0.7V3.3H19.3V0.7H0.7ZM0.6 0H19.4C19.7314 0 20 0.268629 20 0.6V3.4C20 3.73137 19.7314 4 19.4 4H0.600001C0.26863 4 0 3.73137 0 3.4V0.6C0 0.268629 0.268629 0 0.6 0Z" fill="#506072"/>
<path d="M0 12.6C0 12.2686 0.268629 12 0.6 12H19.4C19.7314 12 20 12.2686 20 12.6V15.4C20 15.7314 19.7314 16 19.4 16H0.600001C0.26863 16 0 15.7314 0 15.4V12.6Z" fill="#3980E8"/>
<path fill-rule="evenodd" clip-rule="evenodd" d="M8.10251 10.0203C7.96583 9.88357 7.96583 9.66196 8.10251 9.52527C8.2392 9.38859 8.4608 9.38859 8.59749 9.52527L10.2274 11.1552V4H10.9274L10.9274 11.1552L12.5573 9.52527C12.694 9.38859 12.9156 9.38859 13.0523 9.52527C13.1889 9.66196 13.1889 9.88357 13.0523 10.0203L10.8249 12.2477C10.6883 12.3838 10.4669 12.3842 10.3303 12.2481L8.10251 10.0203Z" fill="#506072"/>
</svg>
