<svg width="20" height="16" viewBox="0 0 20 16" fill="none" xmlns="http://www.w3.org/2000/svg">
<path fill-rule="evenodd" clip-rule="evenodd" d="M19.15 1.02495H3.55V12.625H19.15V1.02495ZM3.55 0.324951H19.15C19.5366 0.324951 19.85 0.638352 19.85 1.02495V12.625C19.85 13.0116 19.5366 13.325 19.15 13.325H3.55C3.1634 13.325 2.85 13.0116 2.85 12.625V1.02495C2.85 0.638351 3.1634 0.324951 3.55 0.324951Z" fill="#506072"/>
<path fill-rule="evenodd" clip-rule="evenodd" d="M0.498437 1.97495C0.691737 1.97495 0.848437 2.13165 0.848437 2.32495V14.625C0.848437 14.8183 0.848437 14.625 0.848437 14.975H17.4984C17.6917 14.975 17.8484 15.1317 17.8484 15.325C17.8484 15.5183 17.6917 15.675 17.4984 15.675H1.19844C0.618539 15.675 0.148438 15.2049 0.148438 14.625V2.32495C0.148438 2.13165 0.305138 1.97495 0.498437 1.97495Z" fill="#506072"/>
<path fill-rule="evenodd" clip-rule="evenodd" d="M6.14687 4.32498C6.14687 4.13168 6.30358 3.97498 6.49687 3.97498H16.4969C16.6902 3.97498 16.8469 4.13168 16.8469 4.32498C16.8469 4.51828 16.6902 4.67498 16.4969 4.67498H6.49687C6.30358 4.67498 6.14687 4.51828 6.14687 4.32498Z" fill="#506072"/>
<path fill-rule="evenodd" clip-rule="evenodd" d="M6.14687 6.82498C6.14687 6.63168 6.30358 6.47498 6.49687 6.47498H16.4969C16.6902 6.47498 16.8469 6.63168 16.8469 6.82498C16.8469 7.01828 16.6902 7.17498 16.4969 7.17498H6.49687C6.30358 7.17498 6.14687 7.01828 6.14687 6.82498Z" fill="#506072"/>
<path fill-rule="evenodd" clip-rule="evenodd" d="M6.14687 9.32498C6.14687 9.13168 6.30358 8.97498 6.49687 8.97498H16.4969C16.6902 8.97498 16.8469 9.13168 16.8469 9.32498C16.8469 9.51828 16.6902 9.67498 16.4969 9.67498H6.49687C6.30358 9.67498 6.14687 9.51828 6.14687 9.32498Z" fill="#506072"/>
</svg>
