<svg width="23" height="24" viewBox="0 0 23 24" fill="none" xmlns="http://www.w3.org/2000/svg">
<path d="M5.32812 10H16.9219C17.0859 10 17.25 10.1641 17.25 10.3281V17.4375C17.25 18.1758 16.6484 18.75 15.9375 18.75H6.3125C5.57422 18.75 5 18.1758 5 17.4375V10.3281C5 10.1641 5.13672 10 5.32812 10ZM17.25 8.79688C17.25 8.98828 17.0859 9.125 16.9219 9.125H5.32812C5.13672 9.125 5 8.98828 5 8.79688V7.8125C5 7.10156 5.57422 6.5 6.3125 6.5H7.625V5.07812C7.625 4.91406 7.76172 4.75 7.95312 4.75H9.04688C9.21094 4.75 9.375 4.91406 9.375 5.07812V6.5H12.875V5.07812C12.875 4.91406 13.0117 4.75 13.2031 4.75H14.2969C14.4609 4.75 14.625 4.91406 14.625 5.07812V6.5H15.9375C16.6484 6.5 17.25 7.10156 17.25 7.8125V8.79688Z" fill="#506072"/>
</svg>
