<svg width="19" height="24" viewBox="0 0 19 24" fill="none" xmlns="http://www.w3.org/2000/svg">
<path fill-rule="evenodd" clip-rule="evenodd" d="M7.19987 0.955215C6.95804 1.11122 6.82426 1.32077 6.82426 1.59456V3.34403C6.82428 3.34983 6.82428 3.35564 6.82426 3.36147L6.82426 10.9297C6.82426 11.1228 6.66773 11.2801 6.47454 11.2803C6.28135 11.2804 6.12457 11.124 6.12426 10.9309L6.12426 10.9298L6.12297 10.0168C6.12225 9.45645 6.12139 8.68939 6.12082 7.86258C6.11968 6.20984 6.11967 4.31698 6.12426 3.35974V3.34568C6.12235 2.99294 5.9761 2.77101 5.76532 2.62846C5.53622 2.47352 5.20483 2.39762 4.84411 2.41824C4.48489 2.43876 4.13679 2.55312 3.88816 2.73012C3.64352 2.90427 3.51716 3.11922 3.51716 3.36063V10.9297C3.51716 11.123 3.36046 11.2803 3.16716 11.2803C2.97386 11.2803 2.81716 11.1236 2.81716 10.9303V6.56749C2.71549 6.25764 2.54498 6.06542 2.35621 5.95111C2.15336 5.82827 1.90636 5.78186 1.65578 5.80704C1.12982 5.8599 0.747091 6.19029 0.7 6.5352V16.38C0.7 20.0051 3.63873 22.9438 7.26383 22.9438H9.17481C11.6401 22.9438 14.0473 21.1918 14.4695 18.8202C14.9489 16.1271 15.6965 14.6088 16.4069 13.6204C16.7409 13.1557 17.0624 12.8146 17.3236 12.5374C17.3382 12.5219 17.3527 12.5065 17.367 12.4914C17.6451 12.1958 17.8191 12 17.9152 11.7923C18.0936 11.4068 17.9837 10.8659 17.6391 10.5207C17.4738 10.3552 17.262 10.2438 17.0138 10.2185C16.7658 10.1933 16.4539 10.2514 16.0862 10.4729C15.5656 10.7866 15.0558 11.3148 14.5697 11.9278C14.1614 12.4425 13.786 12.9954 13.443 13.5005C13.3792 13.5945 13.3165 13.6868 13.255 13.7769C13.1679 13.9043 13.0076 13.9597 12.8604 13.9131C12.7132 13.8666 12.6139 13.7291 12.616 13.5747L12.621 13.1818C12.6241 12.9308 12.6284 12.571 12.6332 12.1358C12.6428 11.2653 12.6543 10.0931 12.6619 8.88624C12.6696 7.67911 12.6734 6.43826 12.6677 5.43003C12.6619 4.41074 12.6462 3.65513 12.6181 3.39882C12.6006 3.2394 12.5003 3.06791 12.3073 2.91796C12.1154 2.76895 11.8545 2.66093 11.5767 2.62741C11.3001 2.59404 11.0245 2.63635 10.7933 2.76468C10.5783 2.88399 10.3816 3.08843 10.2538 3.42229V10.9294L9.90384 10.9303L9.55384 10.9302V1.59456C9.55384 1.32085 9.42008 1.11131 9.17823 0.95528C8.92633 0.792764 8.56789 0.700013 8.18904 0.7C7.81019 0.699987 7.45176 0.792713 7.19987 0.955215ZM9.90384 10.9303L9.55384 10.9302C9.55384 11.1235 9.71055 11.2803 9.90384 11.2803C10.0971 11.2803 10.2538 11.1227 10.2538 10.9294L9.90384 10.9303ZM10.2538 2.28162V1.59456C10.2538 1.03862 9.95891 0.625901 9.55771 0.367069C9.16657 0.114723 8.66761 1.687e-05 8.18906 1.86728e-09C7.71052 -1.6896e-05 7.21155 0.114653 6.82039 0.366998C6.41918 0.625834 6.12426 1.03858 6.12426 1.59456V2.02673C5.73943 1.77968 5.25823 1.69343 4.80418 1.71938C4.33548 1.74616 3.85509 1.89441 3.48221 2.15985C3.10533 2.42814 2.81716 2.83544 2.81716 3.36063V5.41677C2.78507 5.39408 2.75227 5.37261 2.7188 5.35234C2.36665 5.13909 1.96295 5.07265 1.58579 5.11055C0.864451 5.18304 0.0872532 5.67302 0.00195122 6.47748L0 6.49588V16.38C0 20.3917 3.25213 23.6438 7.26383 23.6438H9.17481C11.9214 23.6438 14.6674 21.7025 15.1586 18.9429C15.6231 16.3338 16.3365 14.9178 16.9753 14.0289C17.2816 13.6028 17.5751 13.2912 17.8368 13.0135C17.8502 12.9993 17.8635 12.9852 17.8767 12.9711C18.1386 12.6929 18.3982 12.4153 18.5505 12.0863C18.8688 11.3984 18.6567 10.5492 18.1344 10.0261C17.8661 9.75745 17.5082 9.56522 17.0847 9.52211C16.6608 9.47896 16.1989 9.58777 15.725 9.87329C15.0957 10.2524 14.5234 10.8596 14.0212 11.4928C13.7789 11.7983 13.5475 12.1169 13.33 12.4278C13.331 12.3372 13.3321 12.2423 13.3332 12.1435C13.3427 11.2723 13.3542 10.099 13.3619 8.89067C13.3696 7.68257 13.3734 6.43845 13.3676 5.42605C13.3619 4.42471 13.347 3.62402 13.3139 3.32243C13.2701 2.92396 13.0336 2.59574 12.7367 2.36514C12.4386 2.1336 12.0564 1.98022 11.6606 1.93245C11.2635 1.88454 10.8348 1.94106 10.4536 2.15264C10.3846 2.19093 10.3179 2.2339 10.2538 2.28162Z" fill="#657181"/>
</svg>
