<svg width="20" height="20" viewBox="0 0 20 20" fill="none" xmlns="http://www.w3.org/2000/svg">
<mask id="path-1-inside-1_39095_5505" fill="white">
<path d="M15.3896 0H4.61041C2.06824 0 0 2.06824 0 4.61056V15.3897C0 17.9318 2.06824 20 4.61041 20H15.3896C17.9318 20 20 17.9318 20 15.3897V4.61056C20 2.06824 17.9318 0 15.3896 0ZM19.3939 15.3897C19.3939 17.5977 17.5977 19.3939 15.3896 19.3939H4.61041C2.40234 19.3939 0.606061 17.5977 0.606061 15.3897V4.61056C0.606061 2.40234 2.40234 0.606061 4.61041 0.606061H15.3896C17.5977 0.606061 19.3939 2.40234 19.3939 4.61056V15.3897Z"/>
</mask>
<path d="M15.3896 0H4.61041C2.06824 0 0 2.06824 0 4.61056V15.3897C0 17.9318 2.06824 20 4.61041 20H15.3896C17.9318 20 20 17.9318 20 15.3897V4.61056C20 2.06824 17.9318 0 15.3896 0ZM19.3939 15.3897C19.3939 17.5977 17.5977 19.3939 15.3896 19.3939H4.61041C2.40234 19.3939 0.606061 17.5977 0.606061 15.3897V4.61056C0.606061 2.40234 2.40234 0.606061 4.61041 0.606061H15.3896C17.5977 0.606061 19.3939 2.40234 19.3939 4.61056V15.3897Z" fill="#303030"/>
<path d="M15.3896 20V21V20ZM15.3896 -1H4.61041V1H15.3896V-1ZM4.61041 -1C1.51594 -1 -1 1.51598 -1 4.61056H1C1 2.62051 2.62055 1 4.61041 1V-1ZM-1 4.61056V15.3897H1V4.61056H-1ZM-1 15.3897C-1 18.4841 1.51598 21 4.61041 21V19C2.62051 19 1 17.3795 1 15.3897H-1ZM4.61041 21H15.3896V19H4.61041V21ZM15.3896 21C18.484 21 21 18.4841 21 15.3897H19C19 17.3795 17.3795 19 15.3896 19V21ZM21 15.3897V4.61056H19V15.3897H21ZM21 4.61056C21 1.51598 18.4841 -1 15.3896 -1V1C17.3795 1 19 2.6205 19 4.61056H21ZM18.3939 15.3897C18.3939 17.0453 17.0454 18.3939 15.3896 18.3939V20.3939C18.1499 20.3939 20.3939 18.15 20.3939 15.3897H18.3939ZM15.3896 18.3939H4.61041V20.3939H15.3896V18.3939ZM4.61041 18.3939C2.9546 18.3939 1.60606 17.0453 1.60606 15.3897H-0.393939C-0.393939 18.15 1.85008 20.3939 4.61041 20.3939V18.3939ZM1.60606 15.3897V4.61056H-0.393939V15.3897H1.60606ZM1.60606 4.61056C1.60606 2.9546 2.95465 1.60606 4.61041 1.60606V-0.393939C1.85004 -0.393939 -0.393939 1.85008 -0.393939 4.61056H1.60606ZM4.61041 1.60606H15.3896V-0.393939H4.61041V1.60606ZM15.3896 1.60606C17.0453 1.60606 18.3939 2.9546 18.3939 4.61056H20.3939C20.3939 1.85008 18.15 -0.393939 15.3896 -0.393939V1.60606ZM18.3939 4.61056V15.3897H20.3939V4.61056H18.3939Z" fill="#657181" mask="url(#path-1-inside-1_39095_5505)"/>
<rect x="4.25" y="5.25" width="11.5" height="9.5" stroke="#657181" stroke-width="0.5"/>
<rect x="3.6502" y="4.64995" width="0.9" height="0.9" fill="#303030" stroke="#657181" stroke-width="0.9"/>
<rect x="15.45" y="4.64995" width="0.9" height="0.9" fill="#303030" stroke="#657181" stroke-width="0.9"/>
<rect x="3.6502" y="14.45" width="0.9" height="0.9" fill="#303030" stroke="#657181" stroke-width="0.9"/>
<rect x="15.45" y="14.45" width="0.9" height="0.9" fill="#303030" stroke="#657181" stroke-width="0.9"/>
</svg>
