<svg width="20" height="16" viewBox="0 0 20 16" fill="none" xmlns="http://www.w3.org/2000/svg">
<path fill-rule="evenodd" clip-rule="evenodd" d="M0.746666 3.3V0.7H19.2533V3.3H0.746666ZM0 0.6C0 0.26863 0.286538 0 0.64 0H19.36C19.7135 0 20 0.26863 20 0.6V3.4C20 3.73137 19.7135 4 19.36 4H0.64C0.286538 4 0 3.73137 0 3.4V0.6ZM0.746666 12.7V15.3H19.2533V12.7H0.746666ZM0.64 12C0.286538 12 0 12.2686 0 12.6V15.4C0 15.7314 0.286538 16 0.64 16H19.36C19.7135 16 20 15.7314 20 15.4V12.6C20 12.2686 19.7135 12 19.36 12H0.64Z" fill="#506072"/>
<path fill-rule="evenodd" clip-rule="evenodd" d="M12.4756 10.0201L10.2482 12.2475C10.1115 12.3842 9.88993 12.3842 9.75325 12.2475L7.52586 10.0201C7.38918 9.88342 7.38918 9.66181 7.52586 9.52513C7.66255 9.38844 7.88416 9.38844 8.02084 9.52513L9.65074 11.155V4H10.3507V11.155L11.9806 9.52513C12.1173 9.38844 12.3389 9.38844 12.4756 9.52513C12.6123 9.66181 12.6123 9.88342 12.4756 10.0201Z" fill="#506072"/>
</svg>
